<?xml version="1.0" encoding="utf-8"?>
<!-- Generator: Adobe Illustrator 21.0.2, SVG Export Plug-In . SVG Version: 6.00 Build 0)  -->
<svg version="1.1" id="Layer_1" xmlns="http://www.w3.org/2000/svg" xmlns:xlink="http://www.w3.org/1999/xlink" x="0px" y="0px"
	 viewBox="0 0 304.1 90.2" style="enable-background:new 0 0 304.1 90.2;" xml:space="preserve">
<style type="text/css">
	.st0{fill:#EDA804;}
</style>
<g id="Group_6985" transform="translate(777.989 4076.83)">
	<g id="Group_6984" transform="translate(118.118 35.384)">
		<g id="Group_6983" transform="translate(0 0.141)">
			<rect id="Rectangle_3981" x="-778" y="-4076.5" width="1.3" height="18.5"/>
			<path id="Path_111" d="M-755.9-4057.8h-1.3l-11-16.4h-0.1c0.1,2,0.1,3.4,0.1,4.4v12h-1.3v-18.7h1.3l11,16.6h0.1
				c-0.1-1.6-0.1-3-0.1-4.4v-12.2h1.3L-755.9-4057.8z"/>
			<path id="Path_112" d="M-735.1-4057.8h-1.3l-11-16.4h-0.1c0.1,2,0.1,3.4,0.1,4.4v12h-1.3v-18.7h1.3l11,16.4h0.1
				c-0.1-1.6-0.1-3-0.1-4.4v-12.2h1.3L-735.1-4057.8z"/>
			<path id="Path_113" d="M-712.2-4067.2c0,3-0.7,5.2-2.3,6.9c-3.3,3.4-8.7,3.4-12.1,0.1c0,0-0.1-0.1-0.1-0.1
				c-1.6-2-2.4-4.5-2.3-7.1c0-3,0.7-5.2,2.3-6.9c1.6-1.7,3.8-2.6,6.1-2.5c2.3-0.1,4.5,0.8,6.1,2.5
				C-712.9-4072.5-712.2-4070.1-712.2-4067.2 M-727.4-4067.2c-0.2,2.2,0.5,4.4,1.8,6.2c2.8,2.8,7.3,2.8,10.1,0c0,0,0,0,0,0
				c1.3-1.8,1.9-4,1.8-6.2c0-2.7-0.6-4.7-1.8-6.1c-2.8-2.8-7.3-2.8-10.1,0c0,0,0,0,0,0C-726.8-4071.8-727.4-4069.9-727.4-4067.2"/>
			<path id="Path_114" d="M-695-4076.5h1.4l-6.9,18.5h-1.1l-6.9-18.5h1.4l4.7,12.6c0.7,1.8,1.1,3.4,1.4,4.2c0.1-0.6,0.6-1.6,1-3
				L-695-4076.5z"/>
			<path id="Path_115" d="M-673.2-4067.2c0,3-0.7,5.2-2.3,6.9c-3.3,3.4-8.7,3.4-12.1,0.1c0,0-0.1-0.1-0.1-0.1
				c-1.6-2-2.4-4.5-2.3-7.1c0-3,0.7-5.2,2.3-6.9c3.3-3.4,8.7-3.4,12.1-0.1c0,0,0.1,0.1,0.1,0.1
				C-673.9-4072.2-673.1-4069.7-673.2-4067.2 M-688.5-4067.2c-0.2,2.2,0.5,4.4,1.8,6.2c2.8,2.8,7.3,2.8,10.1,0c0,0,0,0,0,0
				c1.3-1.8,1.9-4,1.8-6.2c0-2.7-0.6-4.7-1.8-6.1c-2.8-2.8-7.3-2.8-10.1,0c0,0,0,0,0,0C-687.9-4071.8-688.5-4069.9-688.5-4067.2"/>
		</g>
		<path id="Path_116" class="st0" d="M-655.5-4076.4h1.4l-6.9,18.7h-1.1l-6.9-18.7h1.4l4.7,12.7c0.7,2,1.1,3.4,1.4,4.4
			c0.1-0.7,0.6-1.7,1-3L-655.5-4076.4z"/>
		<path id="Path_117" class="st0" d="M-633.7-4067.2c0,3-0.7,5.4-2.3,7.1c-3.3,3.4-8.7,3.4-12.1,0.1c0,0-0.1-0.1-0.1-0.1
			c-1.6-2-2.4-4.5-2.3-7.1c0-3,0.7-5.4,2.3-7.1c1.6-1.7,3.8-2.6,6.1-2.5c2.3-0.1,4.5,0.8,6.1,2.5
			C-634.4-4072.2-633.6-4069.7-633.7-4067.2z M-649.1-4067.2c0,2.7,0.6,4.8,1.8,6.2c1.3,1.5,3.2,2.2,5.1,2.1
			c1.9,0.1,3.8-0.6,5.1-2.1c1.3-1.8,1.9-4,1.8-6.2c0-2.7-0.6-4.8-1.8-6.2c-2.8-2.8-7.3-2.8-10.1,0c0,0,0,0,0,0
			C-648.6-4071.6-649.2-4069.4-649.1-4067.2z"/>
		<path id="Path_118" class="st0" d="M-628.2-4057.8v-18.7h1.3v18.7H-628.2z"/>
		<path id="Path_119" class="st0" d="M-612.2-4075.5c-2.1-0.2-4.1,0.7-5.5,2.3c-1.4,1.6-2,3.5-2,6.2c-0.2,2.2,0.5,4.4,1.8,6.2
			c1.4,1.5,3.3,2.3,5.4,2.3c1.5,0,3-0.2,4.4-0.6v1.1c-1.5,0.5-3.1,0.7-4.7,0.7c-2.4,0.1-4.6-0.8-6.2-2.5c-1.6-1.7-2.3-4.1-2.3-7.1
			c0-1.7,0.4-3.4,1.1-5c0.7-1.4,1.8-2.6,3.1-3.4c1.4-0.8,3-1.2,4.7-1.1c1.7,0,3.4,0.3,5,1l-0.6,1.1
			C-609.2-4075.1-610.7-4075.6-612.2-4075.5z"/>
		<path id="Path_120" class="st0" d="M-592-4057.8h-10.2v-18.7h10.2v1.1h-8.9v7.1h8.3v1.1h-8.3v8.1h8.9V-4057.8z"/>
	</g>
	<path id="Path_121" class="st0" d="M-738.7-4074.2l-36.8,36.8c-1,1-1.7,2.2-2.1,3.5c-0.9,2.8-0.1,5.9,2.1,7.9l36.8,36.8
		c1,1,2.2,1.7,3.5,2.1c2.8,0.9,5.9,0.1,7.9-2.1l36.8-36.8c1-1,1.7-2.2,2.1-3.5c0.3-0.8,0.4-1.6,0.4-2.4c-0.1-2.2-1-4.2-2.5-5.7
		l-36.8-36.8c-1-1-2.2-1.7-3.5-2.1C-733.6-4077.4-736.7-4076.5-738.7-4074.2z M-729.5-4072l36.8,36.8c1.9,1.7,2.1,4.7,0.3,6.6
		c-0.1,0.1-0.2,0.2-0.3,0.3l-36.8,36.8c-1.7,1.9-4.7,2.1-6.6,0.3c-0.1-0.1-0.2-0.2-0.3-0.3l-36.8-36.8c-1-0.9-1.5-2.1-1.6-3.4
		c0.1-1.3,0.7-2.6,1.6-3.5l36.8-36.8c1.7-1.9,4.7-2.1,6.6-0.3C-729.7-4072.2-729.6-4072.1-729.5-4072L-729.5-4072z M-718.2-4020.6
		c0,1.6-0.3,3.2-0.8,4.7l-2.4,2.5c-0.4-6.1-5.5-10.8-11.6-10.8c-6.1,0-11.1,4.7-11.6,10.8l-2.3-2.4c-0.6-1.5-0.9-3.2-0.8-4.8
		c0-8.2,6.6-14.8,14.8-14.8S-718.2-4028.8-718.2-4020.6L-718.2-4020.6z M-732.9-4054.7c-2.7,0-5.5,0.4-8.1,1.3l5.8-5.8
		c1.2-1.3,3.2-1.3,4.4-0.1c0,0,0.1,0.1,0.1,0.1l5.8,5.8C-727.4-4054.3-730.1-4054.7-732.9-4054.7z M-703.6-4031.6
		c0,0.1,0,0.1-0.1,0.3c-0.2,0.4-0.4,0.7-0.7,1l-1.7,1.7c-0.1-2.5-0.6-5.1-1.3-7.5l3.1,3.1c0,0,0.7,0.7,0.7,1.3L-703.6-4031.6z
		 M-752-4020.9l-3.1-3.1c-0.2-1.3-0.3-2.6-0.3-4c0-12.4,10.1-22.5,22.5-22.5s22.5,10.1,22.5,22.5c0,0,0,0,0,0c0,1.3-0.1,2.6-0.3,3.8
		l-3.1,3.1c0-10.5-8.6-19.1-19.2-19C-743.5-4040-752-4031.4-752-4020.9L-752-4020.9z M-758.3-4036.2c-0.7,2.4-1.1,5-1.3,7.5
		l-1.7-1.7c0,0-0.7-0.7-0.7-1.3v-0.1c0-0.1,0-0.1,0.1-0.3c0.2-0.4,0.4-0.7,0.7-1L-758.3-4036.2z M-732.9-4020.2
		c4.2,0,7.6,3.4,7.6,7.6s-3.4,7.6-7.6,7.6c-4.2,0-7.6-3.4-7.6-7.6l0,0C-740.5-4016.7-737.1-4020.2-732.9-4020.2
		C-732.9-4020.2-732.9-4020.2-732.9-4020.2"/>
</g>
</svg>
