<svg xmlns="http://www.w3.org/2000/svg" xmlns:xlink="http://www.w3.org/1999/xlink" version="1.1" style="enable-background:new 0 0 304.1 90.2;" xml:space="preserve" width="91.30158233642578" height="92.11640167236328"><rect id="backgroundrect" width="100%" height="100%" x="0" y="0" fill="none" stroke="none"/>
<style type="text/css">
	.st0{fill:#EDA804;}
</style>

<g class="currentLayer" style=""><title>Layer 1</title><g id="Group_6985" class="">
	<g id="Group_6984">
		<g id="Group_6983">
			<rect id="Rectangle_3981" x="118.10700988769531" y="35.85507583618164" width="1.2999999523162842" height="18.5"/>
			<path id="Path_111" d="M140.20700988769534,54.55507699847203 h-1.3 l-11,-16.4 h-0.1 c0.1,2 0.1,3.4 0.1,4.4 v12 h-1.3 v-18.7 h1.3 l11,16.6 h0.1 c-0.1,-1.6 -0.1,-3 -0.1,-4.4 v-12.2 h1.3 L140.20700988769534,54.55507699847203 z"/>
			<path id="Path_112" d="M161.0070098876953,54.55507699847203 h-1.3 l-11,-16.4 h-0.1 c0.1,2 0.1,3.4 0.1,4.4 v12 h-1.3 v-18.7 h1.3 l11,16.4 h0.1 c-0.1,-1.6 -0.1,-3 -0.1,-4.4 v-12.2 h1.3 L161.0070098876953,54.55507699847203 z"/>
			<path id="Path_113" d="M183.90700988769527,45.155076998472396 c0,3 -0.7000000000000003,5.2 -2.3,6.9 c-3.3,3.4 -8.7,3.4 -12.1,0.1 c0,0 -0.1,-0.1 -0.1,-0.1 c-1.6,-2 -2.4,-4.5 -2.3,-7.1 c0,-3 0.7000000000000003,-5.2 2.3,-6.9 c1.6,-1.7000000000000002 3.8,-2.6 6.1,-2.5 c2.3,-0.1 4.5,0.8 6.1,2.5 C183.20700988769534,39.855076998472214 183.90700988769527,42.255076998472305 183.90700988769527,45.155076998472396 M168.70700988769534,45.155076998472396 c-0.2,2.2 0.5,4.4 1.8,6.2 c2.8,2.8 7.3,2.8 10.1,0 c0,0 0,0 0,0 c1.3,-1.8 1.9,-4 1.8,-6.2 c0,-2.7 -0.6000000000000003,-4.7 -1.8,-6.1 c-2.8,-2.8 -7.3,-2.8 -10.1,0 c0,0 0,0 0,0 C169.30700988769536,40.55507699847203 168.70700988769534,42.45507699847212 168.70700988769534,45.155076998472396 "/>
			<path id="Path_114" d="M201.1070098876953,35.855076998472214 h1.4 l-6.9,18.5 h-1.1 l-6.9,-18.5 h1.4 l4.7,12.6 c0.7000000000000003,1.8 1.1,3.4 1.4,4.2 c0.1,-0.6000000000000003 0.6000000000000003,-1.6 1,-3 L201.1070098876953,35.855076998472214 z"/>
			<path id="Path_115" d="M222.90700988769527,45.155076998472396 c0,3 -0.7000000000000003,5.2 -2.3,6.9 c-3.3,3.4 -8.7,3.4 -12.1,0.1 c0,0 -0.1,-0.1 -0.1,-0.1 c-1.6,-2 -2.4,-4.5 -2.3,-7.1 c0,-3 0.7000000000000003,-5.2 2.3,-6.9 c3.3,-3.4 8.7,-3.4 12.1,-0.1 c0,0 0.1,0.1 0.1,0.1 C222.20700988769534,40.155076998472396 223.0070098876953,42.655076998472396 222.90700988769527,45.155076998472396 M207.6070098876953,45.155076998472396 c-0.2,2.2 0.5,4.4 1.8,6.2 c2.8,2.8 7.3,2.8 10.1,0 c0,0 0,0 0,0 c1.3,-1.8 1.9,-4 1.8,-6.2 c0,-2.7 -0.6000000000000003,-4.7 -1.8,-6.1 c-2.8,-2.8 -7.3,-2.8 -10.1,0 c0,0 0,0 0,0 C208.20700988769534,40.55507699847203 207.6070098876953,42.45507699847212 207.6070098876953,45.155076998472396 "/>
		</g>
		<path id="Path_116" class="st0" d="M240.6070098876953,35.81407699584952 h1.4 l-6.9,18.7 h-1.1 l-6.9,-18.7 h1.4 l4.7,12.7 c0.7000000000000002,2 1.1,3.4 1.4,4.4 c0.1,-0.7000000000000002 0.6000000000000002,-1.7000000000000002 1,-3 L240.6070098876953,35.81407699584952 z"/>
		<path id="Path_117" class="st0" d="M262.40700988769527,45.01407699584979 c0,3 -0.7000000000000002,5.4 -2.3,7.1 c-3.3,3.4 -8.7,3.4 -12.1,0.1 c0,0 -0.1,-0.1 -0.1,-0.1 c-1.6,-2 -2.4,-4.5 -2.3,-7.1 c0,-3 0.7000000000000002,-5.4 2.3,-7.1 c1.6,-1.7000000000000002 3.8,-2.6 6.1,-2.5 c2.3,-0.1 4.5,0.8 6.1,2.5 C261.70700988769534,40.01407699584979 262.5070098876953,42.51407699584979 262.40700988769527,45.01407699584979 zM247.0070098876953,45.01407699584979 c0,2.7 0.6000000000000002,4.8 1.8,6.2 c1.3,1.5 3.2,2.2 5.1,2.1 c1.9,0.1 3.8,-0.6000000000000002 5.1,-2.1 c1.3,-1.8 1.9,-4 1.8,-6.2 c0,-2.7 -0.6000000000000002,-4.8 -1.8,-6.2 c-2.8,-2.8 -7.3,-2.8 -10.1,0 c0,0 0,0 0,0 C247.5070098876953,40.6140769958497 246.90700988769527,42.81407699584952 247.0070098876953,45.01407699584979 z"/>
		<path id="Path_118" class="st0" d="M267.90700988769527,54.41407699584943 v-18.7 h1.3 v18.7 H267.90700988769527 z"/>
		<path id="Path_119" class="st0" d="M283.90700988769527,36.71407699584961 c-2.1,-0.2 -4.1,0.7000000000000002 -5.5,2.3 c-1.4,1.6 -2,3.5 -2,6.2 c-0.2,2.2 0.5,4.4 1.8,6.2 c1.4,1.5 3.3,2.3 5.4,2.3 c1.5,0 3,-0.2 4.4,-0.6000000000000002 v1.1 c-1.5,0.5 -3.1,0.7000000000000002 -4.7,0.7000000000000002 c-2.4,0.1 -4.6,-0.8 -6.2,-2.5 c-1.6,-1.7000000000000002 -2.3,-4.1 -2.3,-7.1 c0,-1.7000000000000002 0.4,-3.4 1.1,-5 c0.7000000000000002,-1.4 1.8,-2.6 3.1,-3.4 c1.4,-0.8 3,-1.2 4.7,-1.1 c1.7000000000000002,0 3.4,0.3000000000000001 5,1 l-0.6000000000000002,1.1 C286.90700988769527,37.1140769958497 285.40700988769527,36.6140769958497 283.90700988769527,36.71407699584961 z"/>
		<path id="Path_120" class="st0" d="M304.1070098876953,54.41407699584943 h-10.2 v-18.7 h10.2 v1.1 h-8.9 v7.1 h8.3 v1.1 h-8.3 v8.1 h8.9 V54.41407699584943 z"/>
	</g>
	<path id="Path_121" class="st0" d="M39.289013671874955,2.630078125000182 l-36.8,36.8 c-1,1 -1.7000000000000002,2.2 -2.1,3.5 c-0.9,2.8 -0.1,5.9 2.1,7.9 l36.8,36.8 c1,1 2.2,1.7000000000000002 3.5,2.1 c2.8,0.9 5.9,0.1 7.9,-2.1 l36.8,-36.8 c1,-1 1.7000000000000002,-2.2 2.1,-3.5 c0.30000000000000004,-0.8 0.4,-1.6 0.4,-2.4 c-0.1,-2.2 -1,-4.2 -2.5,-5.7 l-36.8,-36.8 c-1,-1 -2.2,-1.7000000000000002 -3.5,-2.1 C44.38901367187498,-0.569921875000091 41.289013671874955,0.330078125 39.289013671874955,2.630078125000182 zM48.489013671875,4.830078125 l36.8,36.8 c1.9,1.7000000000000002 2.1,4.7 0.30000000000000004,6.6 c-0.1,0.1 -0.2,0.2 -0.30000000000000004,0.30000000000000004 l-36.8,36.8 c-1.7000000000000002,1.9 -4.7,2.1 -6.6,0.30000000000000004 c-0.1,-0.1 -0.2,-0.2 -0.30000000000000004,-0.30000000000000004 l-36.8,-36.8 c-1,-0.9 -1.5,-2.1 -1.6,-3.4 c0.1,-1.3 0.7000000000000001,-2.6 1.6,-3.5 l36.8,-36.8 c1.7000000000000002,-1.9 4.7,-2.1 6.6,-0.30000000000000004 C48.289013671874955,4.630078125000182 48.38901367187498,4.730078125000091 48.489013671875,4.830078125 L48.489013671875,4.830078125 zM59.789013671874955,56.23007812500009 c0,1.6 -0.30000000000000004,3.2 -0.8,4.7 l-2.4,2.5 c-0.4,-6.1 -5.5,-10.8 -11.6,-10.8 c-6.1,0 -11.1,4.7 -11.6,10.8 l-2.3,-2.4 c-0.6000000000000001,-1.5 -0.9,-3.2 -0.8,-4.8 c0,-8.2 6.6,-14.8 14.8,-14.8 S59.789013671874955,48.03007812499982 59.789013671874955,56.23007812500009 L59.789013671874955,56.23007812500009 zM45.08901367187502,22.130078125000182 c-2.7,0 -5.5,0.4 -8.1,1.3 l5.8,-5.8 c1.2,-1.3 3.2,-1.3 4.4,-0.1 c0,0 0.1,0.1 0.1,0.1 l5.8,5.8 C50.58901367187502,22.530078124999818 47.88901367187498,22.130078125000182 45.08901367187502,22.130078125000182 zM74.38901367187498,45.23007812500009 c0,0.1 0,0.1 -0.1,0.30000000000000004 c-0.2,0.4 -0.4,0.7000000000000001 -0.7000000000000001,1 l-1.7000000000000002,1.7000000000000002 c-0.1,-2.5 -0.6000000000000001,-5.1 -1.3,-7.5 l3.1,3.1 c0,0 0.7000000000000001,0.7000000000000001 0.7000000000000001,1.3 L74.38901367187498,45.23007812500009 zM25.989013671875,55.93007812499991 l-3.1,-3.1 c-0.2,-1.3 -0.30000000000000004,-2.6 -0.30000000000000004,-4 c0,-12.4 10.1,-22.5 22.5,-22.5 s22.5,10.1 22.5,22.5 c0,0 0,0 0,0 c0,1.3 -0.1,2.6 -0.30000000000000004,3.8 l-3.1,3.1 c0,-10.5 -8.6,-19.1 -19.2,-19 C34.489013671875,36.830078125 25.989013671875,45.43007812499991 25.989013671875,55.93007812499991 L25.989013671875,55.93007812499991 zM19.689013671875045,40.63007812500018 c-0.7000000000000001,2.4 -1.1,5 -1.3,7.5 l-1.7000000000000002,-1.7000000000000002 c0,0 -0.7000000000000001,-0.7000000000000001 -0.7000000000000001,-1.3 v-0.1 c0,-0.1 0,-0.1 0.1,-0.30000000000000004 c0.2,-0.4 0.4,-0.7000000000000001 0.7000000000000001,-1 L19.689013671875045,40.63007812500018 zM45.08901367187502,56.63007812500018 c4.2,0 7.6,3.4 7.6,7.6 s-3.4,7.6 -7.6,7.6 c-4.2,0 -7.6,-3.4 -7.6,-7.6 l0,0 C37.489013671875,60.13007812500018 40.88901367187498,56.63007812500018 45.08901367187502,56.63007812500018 C45.08901367187502,56.63007812500018 45.08901367187502,56.63007812500018 45.08901367187502,56.63007812500018 "/>
</g></g></svg>