<?xml version="1.0" encoding="utf-8"?>
<!-- Generator: Adobe Illustrator 23.0.4, SVG Export Plug-In . SVG Version: 6.00 Build 0)  -->
<svg version="1.1" id="Layer_1" xmlns="http://www.w3.org/2000/svg" xmlns:xlink="http://www.w3.org/1999/xlink" x="0px" y="0px"
	 viewBox="0 0 129.7 35" style="enable-background:new 0 0 129.7 35;" xml:space="preserve">
<style type="text/css">
	.st0{fill:#EDA804;}
	.st1{enable-background:new    ;}
	.st2{fill:#334553;}
</style>
<g id="Group_405" transform="translate(-30 -30)">
	<g id="Group_191" transform="translate(-10 13)">
		<path id="Path_121_1_" class="st0" d="M55.3,18L41,32.3c-0.4,0.4-0.7,0.8-0.8,1.4c-0.4,1.1,0,2.3,0.8,3.1l14.3,14.3
			c0.4,0.4,0.8,0.7,1.4,0.8c1.1,0.4,2.3,0,3.1-0.8L74,36.8c0.4-0.4,0.7-0.8,0.8-1.4c0.1-0.3,0.2-0.6,0.2-0.9c0-0.8-0.4-1.6-1-2.2
			L59.7,18c-0.4-0.4-0.8-0.7-1.4-0.8C57.2,16.8,56,17.1,55.3,18z M58.9,18.9l14.3,14.3c0.7,0.7,0.8,1.8,0.1,2.5c0,0,0,0,0,0
			l-0.1,0.1L58.9,50.2c-0.7,0.7-1.8,0.8-2.5,0.1c0,0,0,0,0,0l-0.1-0.1L41.9,35.9c-0.4-0.3-0.6-0.8-0.6-1.3c0-0.5,0.3-1,0.6-1.4
			l14.3-14.3c0.7-0.7,1.8-0.8,2.5-0.1c0,0,0,0,0,0C58.8,18.8,58.8,18.8,58.9,18.9L58.9,18.9z M63.3,38.9c0,0.6-0.1,1.2-0.3,1.8
			l-0.9,1c-0.2-2.5-2.3-4.4-4.8-4.2c-2.3,0.2-4,1.9-4.2,4.2l-0.9-0.9c-0.2-0.6-0.3-1.2-0.3-1.9c0-3.2,2.6-5.7,5.7-5.7
			C60.7,33.1,63.3,35.7,63.3,38.9L63.3,38.9z M57.5,25.6c-1.1,0-2.1,0.2-3.2,0.5l2.3-2.3c0.4-0.5,1.2-0.5,1.7-0.1c0,0,0,0,0,0l0,0
			l2.3,2.2C59.6,25.8,58.6,25.6,57.5,25.6z M68.9,34.6c0,0,0,0,0,0.1c-0.1,0.1-0.2,0.3-0.3,0.4L68,35.8c-0.1-1-0.2-2-0.5-2.9
			l1.2,1.2C68.8,34.2,68.9,34.4,68.9,34.6L68.9,34.6z M50.1,38.8l-1.2-1.2c-0.1-0.5-0.1-1-0.1-1.6c0.1-4.8,4-8.7,8.8-8.7
			c4.8,0.1,8.6,3.9,8.7,8.7l0,0c0,0.5,0,1-0.1,1.5L65,38.7c0-4.1-3.4-7.4-7.5-7.4C53.4,31.3,50.1,34.6,50.1,38.8L50.1,38.8
			L50.1,38.8z M47.6,32.8c-0.3,1-0.4,1.9-0.5,2.9l-0.7-0.7c-0.1-0.1-0.2-0.3-0.3-0.5v-0.1c0,0,0,0,0-0.1c0.1-0.1,0.2-0.3,0.3-0.4
			L47.6,32.8z M57.5,39c1.6,0,3,1.3,3,3c0,1.6-1.3,3-3,3s-3-1.3-3-3l0,0C54.6,40.4,55.9,39,57.5,39C57.5,39,57.5,39,57.5,39L57.5,39
			"/>
		<g class="st1">
			<path class="st2" d="M86.9,38v-8.6h0.6V38H86.9z"/>
			<path class="st2" d="M96.7,38h-0.6L91,30.4h0c0,0.9,0.1,1.6,0.1,2.1V38h-0.6v-8.6H91l5.1,7.6h0c0-0.7-0.1-1.4-0.1-2v-5.6h0.6V38z
				"/>
			<path class="st2" d="M105.8,38h-0.6l-5.1-7.6h0c0,0.9,0.1,1.6,0.1,2.1V38h-0.6v-8.6h0.6l5.1,7.6h0c0-0.7-0.1-1.4-0.1-2v-5.6h0.6
				V38z"/>
			<path class="st2" d="M115.9,33.7c0,1.4-0.3,2.4-1,3.2s-1.6,1.2-2.8,1.2c-1.2,0-2.1-0.4-2.8-1.2s-1-1.9-1-3.2c0-1.4,0.3-2.4,1-3.2
				s1.6-1.2,2.8-1.2c1.2,0,2.1,0.4,2.8,1.2S115.9,32.3,115.9,33.7z M108.9,33.7c0,1.2,0.3,2.2,0.8,2.8s1.3,1,2.4,1
				c1,0,1.8-0.3,2.4-1s0.8-1.6,0.8-2.9c0-1.2-0.3-2.2-0.8-2.8s-1.3-1-2.4-1c-1,0-1.8,0.3-2.4,1S108.9,32.5,108.9,33.7z"/>
			<path class="st2" d="M123.4,29.4h0.7l-3.2,8.6h-0.5l-3.2-8.6h0.6l2.2,5.8c0.3,0.9,0.5,1.5,0.7,2c0.1-0.3,0.2-0.7,0.5-1.4
				L123.4,29.4z"/>
			<path class="st2" d="M133,33.7c0,1.4-0.3,2.4-1,3.2s-1.6,1.2-2.8,1.2c-1.2,0-2.1-0.4-2.8-1.2s-1-1.9-1-3.2c0-1.4,0.3-2.4,1-3.2
				s1.6-1.2,2.8-1.2c1.2,0,2.1,0.4,2.8,1.2S133,32.3,133,33.7z M126,33.7c0,1.2,0.3,2.2,0.8,2.8s1.3,1,2.4,1c1,0,1.8-0.3,2.4-1
				s0.8-1.6,0.8-2.9c0-1.2-0.3-2.2-0.8-2.8s-1.3-1-2.4-1c-1,0-1.8,0.3-2.4,1S126,32.5,126,33.7z"/>
		</g>
		<g class="st1">
			<path class="st0" d="M140.5,29.4h0.7l-3.2,8.6h-0.5l-3.2-8.6h0.6l2.2,5.8c0.3,0.9,0.5,1.5,0.7,2c0.1-0.3,0.2-0.7,0.5-1.4
				L140.5,29.4z"/>
			<path class="st0" d="M150,33.7c0,1.4-0.3,2.4-1,3.2s-1.6,1.2-2.8,1.2c-1.2,0-2.1-0.4-2.8-1.2s-1-1.9-1-3.2c0-1.4,0.3-2.4,1-3.2
				s1.6-1.2,2.8-1.2c1.2,0,2.1,0.4,2.8,1.2S150,32.3,150,33.7z M143,33.7c0,1.2,0.3,2.2,0.8,2.8s1.3,1,2.4,1c1,0,1.8-0.3,2.4-1
				s0.8-1.6,0.8-2.9c0-1.2-0.3-2.2-0.8-2.8s-1.3-1-2.4-1c-1,0-1.8,0.3-2.4,1S143,32.5,143,33.7z"/>
			<path class="st0" d="M152.5,38v-8.6h0.6V38H152.5z"/>
			<path class="st0" d="M159.6,29.8c-1.1,0-1.9,0.3-2.5,1s-0.9,1.6-0.9,2.8c0,1.2,0.3,2.2,0.9,2.8s1.4,1,2.5,1c0.7,0,1.4-0.1,2-0.3
				v0.5c-0.6,0.2-1.3,0.3-2.1,0.3c-1.2,0-2.2-0.4-2.8-1.2s-1-1.9-1-3.3c0-0.9,0.2-1.6,0.5-2.3s0.8-1.2,1.4-1.5s1.3-0.5,2.2-0.5
				c0.8,0,1.6,0.2,2.2,0.5l-0.2,0.5C161,30,160.3,29.8,159.6,29.8z"/>
			<path class="st0" d="M168.6,38h-4.7v-8.6h4.7V30h-4.1v3.2h3.9v0.6h-3.9v3.7h4.1V38z"/>
		</g>
	</g>
</g>
</svg>
