<?xml version="1.0" encoding="utf-8"?>
<!-- Generator: Adobe Illustrator 23.0.4, SVG Export Plug-In . SVG Version: 6.00 Build 0)  -->
<svg version="1.1" id="Layer_1" xmlns="http://www.w3.org/2000/svg" xmlns:xlink="http://www.w3.org/1999/xlink" x="0px" y="0px"
	 viewBox="0 0 35.2 35" style="enable-background:new 0 0 35.2 35;" xml:space="preserve">
<style type="text/css">
	.st0{fill:#EDA804;}
</style>
<path id="Path_121_1_" class="st0" d="M15.4,1L1.1,15.3c-0.4,0.4-0.7,0.8-0.8,1.4c-0.4,1.1,0,2.3,0.8,3.1l14.3,14.3
	c0.4,0.4,0.8,0.7,1.4,0.8c1.1,0.4,2.3,0,3.1-0.8l14.3-14.3c0.4-0.4,0.7-0.8,0.8-1.4c0.1-0.3,0.2-0.6,0.2-0.9c0-0.8-0.4-1.6-1-2.2
	L19.8,1c-0.4-0.4-0.8-0.7-1.4-0.8C17.3-0.2,16.1,0.1,15.4,1z M19,1.9l14.3,14.3c0.7,0.7,0.8,1.8,0.1,2.5c0,0,0,0,0,0l-0.1,0.1
	L19,33.2c-0.7,0.7-1.8,0.8-2.5,0.1c0,0,0,0,0,0l-0.1-0.1L2,18.9c-0.4-0.3-0.6-0.8-0.6-1.3c0-0.5,0.3-1,0.6-1.4L16.2,1.9
	c0.7-0.7,1.8-0.8,2.5-0.1c0,0,0,0,0,0C18.9,1.8,18.9,1.8,19,1.9L19,1.9z M23.4,21.9c0,0.6-0.1,1.2-0.3,1.8l-0.9,1
	c-0.2-2.5-2.3-4.4-4.8-4.2c-2.3,0.2-4,1.9-4.2,4.2l-0.9-0.9c-0.2-0.6-0.3-1.2-0.3-1.9c0-3.2,2.6-5.7,5.7-5.7S23.4,18.7,23.4,21.9
	L23.4,21.9z M17.6,8.6c-1.1,0-2.1,0.2-3.2,0.5l2.3-2.3c0.4-0.5,1.2-0.5,1.7-0.1c0,0,0,0,0,0l0,0l2.3,2.3C19.7,8.8,18.7,8.6,17.6,8.6
	z M29,17.6c0,0,0,0,0,0.1c-0.1,0.1-0.2,0.3-0.3,0.4l-0.7,0.7c-0.1-1-0.2-2-0.5-2.9l1.2,1.2C28.9,17.2,29,17.4,29,17.6L29,17.6z
	 M10.2,21.8L9,20.5c-0.1-0.5-0.1-1-0.1-1.6c0.1-4.8,4-8.7,8.8-8.7c4.8,0.1,8.6,3.9,8.7,8.7l0,0c0,0.5,0,1-0.1,1.5l-1.2,1.2
	c0-4.1-3.4-7.4-7.5-7.4S10.2,17.6,10.2,21.8L10.2,21.8L10.2,21.8z M7.7,15.8c-0.3,1-0.4,1.9-0.5,2.9l-0.7-0.7
	c-0.1-0.1-0.2-0.3-0.3-0.5v-0.1c0,0,0,0,0-0.1c0.1-0.1,0.2-0.3,0.3-0.4L7.7,15.8z M17.6,22c1.6,0,3,1.3,3,3c0,1.6-1.3,3-3,3
	s-3-1.3-3-3l0,0C14.7,23.4,16,22,17.6,22C17.6,22,17.6,22,17.6,22L17.6,22"/>
</svg>
